<svg width="41" height="33" viewBox="0 0 41 33" fill="none" xmlns="http://www.w3.org/2000/svg">
<path d="M22.4167 15.0455H18.1825V10.6711H22.4167V15.0455ZM22.4167 0H18.1825V4.47021H22.4167V0ZM27.4261 10.6637H23.1918V15.0382H27.4261V10.6637ZM17.4138 5.35394H13.1796V9.77996H17.4138V5.35394ZM22.4167 5.35394H18.1825V9.77996H22.4167V5.35394ZM40.148 12.7184C39.2256 12.004 37.0989 11.7463 35.4654 12.0998C35.254 10.3323 34.3956 8.79313 32.8326 7.40861L31.9358 6.72372L31.34 7.75474C30.1614 9.80205 29.8411 13.175 31.103 15.399C30.5457 15.7451 29.4503 16.2165 28.0026 16.187H0.156532C-0.400774 19.9281 0.528069 24.7887 2.97509 28.1247C5.35165 31.3577 8.91328 33 13.5703 33C23.6531 33 31.1158 27.6608 34.607 17.9618C35.9778 17.9913 38.9373 17.9692 40.4555 14.6331C40.5516 14.449 40.8783 13.661 41 13.3738L40.148 12.7184ZM7.40791 10.6637H3.18008V15.0382H7.41432V10.6637H7.40791ZM12.4109 10.6637H8.17661V15.0382H12.4109V10.6637ZM17.4138 10.6637H13.1796V15.0382H17.4138V10.6637ZM12.4109 5.35394H8.17661V9.77996H12.4109V5.35394Z" fill="white"/>
</svg>
