<svg width="27" height="41" viewBox="0 0 27 41" fill="none" xmlns="http://www.w3.org/2000/svg">
<path d="M20.251 13.6693C22.0409 13.6693 23.7576 12.9493 25.0233 11.6675C26.2889 10.3858 27 8.64733 27 6.83467C27 5.022 26.2889 3.28358 25.0233 2.00183C23.7576 0.720079 22.0409 0 20.251 0L6.75297 0C4.96407 0 3.24843 0.719657 1.98349 2.00066C0.718547 3.28165 0.00790929 5.01906 0.00790929 6.83066C0.00790929 8.64227 0.718547 10.3797 1.98349 11.6607C3.24843 12.9417 4.96407 13.6613 6.75297 13.6613C4.96302 13.6613 3.24638 14.3814 1.9807 15.6632C0.71501 16.9449 0.00395562 18.6833 0.00395562 20.496C0.00395562 22.3087 0.71501 24.0471 1.9807 25.3288C3.24638 26.6106 4.96302 27.3307 6.75297 27.3307C5.41814 27.3299 4.11305 27.7299 3.00275 28.4803C1.89245 29.2306 1.02679 30.2976 0.515255 31.5461C0.00371593 32.7947 -0.130732 34.1688 0.128913 35.4948C0.388558 36.8207 1.03063 38.0389 1.97395 38.9953C2.91726 39.9517 4.11944 40.6034 5.42847 40.8679C6.7375 41.1324 8.09457 40.9978 9.32809 40.4813C10.5616 39.9647 11.6162 39.0893 12.3584 37.9658C13.1007 36.8423 13.4972 35.5211 13.498 34.1693V13.6693H20.251ZM20.251 13.6693C18.9169 13.6693 17.6129 14.0699 16.5036 14.8205C15.3944 15.5711 14.5299 16.6379 14.0194 17.886C13.5088 19.1342 13.3753 20.5076 13.6355 21.8326C13.8958 23.1576 14.5382 24.3747 15.4815 25.33C16.4248 26.2853 17.6267 26.9359 18.9351 27.1994C20.2435 27.463 21.5997 27.3277 22.8322 26.8107C24.0647 26.2937 25.1181 25.4182 25.8593 24.2949C26.6005 23.1716 26.996 21.851 26.996 20.5C26.9958 18.6885 26.2851 16.9512 25.0202 15.6702C23.7553 14.3893 22.0398 13.6695 20.251 13.6693Z" fill="black"/>
</svg>
