<svg width="30" height="26" viewBox="0 0 30 26" fill="none" xmlns="http://www.w3.org/2000/svg">
<path d="M12.6732 6.85417H8.02734C5.68359 6.19368 0.381445 6.36557 0.381445 11.5632C0.381445 13.4577 1.26035 14.7888 2.43223 15.4039C0.961523 16.8521 0.264258 17.5352 0.264258 18.5023C0.264258 19.1949 0.526172 19.8334 1.3125 20.1904C0.476367 21.0347 0 21.648 0 22.8002C0 24.822 1.64355 26 5.95488 26C10.1004 26 12.5051 24.3365 12.5051 21.3924C12.5051 17.6989 9.85898 17.8349 3.62051 17.4257L4.40742 16.0688C6.00527 16.5461 11.3625 16.6985 11.3625 11.7943C11.3625 10.6168 10.9096 9.79769 10.4836 9.20836L12.6756 9.02954L12.6732 6.85417ZM8.95723 22.085C8.95723 24.1036 2.81133 24.1061 2.81133 22.238C2.81133 21.7254 3.12012 21.2935 3.43066 20.8817C7.98398 21.2154 8.95723 21.0939 8.95723 22.085ZM5.98008 13.6114C2.88633 13.6114 3.02344 9.13092 6.05039 9.13092C8.95312 9.13092 9.02812 13.6114 5.98008 13.6114ZM13.7906 19.9398V17.9187C15.358 17.6882 15.3867 17.7928 15.3867 17.2261V9.70136C15.3867 9.16617 15.2666 9.23669 13.7906 8.67758L14.0525 6.60483H18.9844V17.2273C18.9844 17.6372 19.0078 17.6882 19.3658 17.7399L20.5805 17.9187V19.9398H13.7906ZM16.8639 4.55727C15.5062 4.55727 14.7199 3.71168 14.7199 2.25219C14.7199 0.792706 15.5062 0 16.8639 0C18.2455 0 19.0318 0.794595 19.0318 2.25219C19.0318 3.70979 18.2455 4.55727 16.8639 4.55727ZM30 18.9475C28.9752 19.4846 27.4746 19.9713 26.1164 19.9713C23.2816 19.9713 22.21 18.7435 22.21 15.8497V9.14351C22.21 8.80225 22.2715 8.88788 20.352 8.88788V6.60924C22.4484 6.35298 23.2816 5.22405 23.5436 2.43667H25.807C25.807 6.58154 25.7285 6.32842 25.998 6.32842H29.3555V8.88788H25.807V15.0047C25.807 15.4405 25.5188 18.2417 29.3561 16.6947L30 18.9475Z" fill="black"/>
</svg>
