<svg width="41" height="46" viewBox="0 0 41 46" fill="none" xmlns="http://www.w3.org/2000/svg">
<path d="M40.9802 10.4067C40.9737 10.3858 40.966 10.3654 40.9571 10.3456C40.9453 10.307 40.9307 10.2694 40.9134 10.2333C40.9 10.2109 40.8852 10.1896 40.8689 10.1695C40.8508 10.1401 40.8309 10.1118 40.8095 10.0851C40.7906 10.0653 40.7667 10.0492 40.746 10.0312C40.7225 10.0091 40.6978 9.98871 40.6718 9.97009L32.7358 4.99096C32.6356 4.92788 32.5218 4.89467 32.4061 4.89467C32.2903 4.89467 32.1766 4.92788 32.0763 4.99096L24.1386 9.97278C24.1132 9.9916 24.0889 10.0123 24.0661 10.0348C24.0436 10.0512 24.0221 10.0692 24.0018 10.0887C23.9802 10.115 23.9603 10.1429 23.9424 10.1722C23.9284 10.1938 23.9103 10.2127 23.8979 10.236C23.8812 10.2723 23.8669 10.3099 23.855 10.3483C23.8484 10.369 23.8377 10.3879 23.8319 10.4094C23.8168 10.4704 23.8091 10.5332 23.8089 10.5963V20.0514L17.1952 24.2013V5.69983C17.1954 5.63639 17.1876 5.57322 17.1722 5.51206C17.1672 5.49049 17.1557 5.47163 17.1491 5.45096C17.1376 5.41263 17.1232 5.37538 17.1062 5.33956C17.0947 5.3162 17.0757 5.29733 17.0617 5.27487C17.0436 5.24538 17.0237 5.21718 17.0023 5.19042C16.9818 5.17125 16.9603 5.15325 16.938 5.13651C16.9149 5.11467 16.8907 5.09427 16.8655 5.07542L8.92698 0.0962939C8.82672 0.0332106 8.71298 0 8.59721 0C8.48143 0 8.3677 0.0332106 8.26744 0.0962939L0.330601 5.07542C0.304833 5.09378 0.28056 5.11452 0.258051 5.13741C0.235314 5.15386 0.21356 5.17186 0.19292 5.19132C0.171597 5.2176 0.152035 5.24553 0.134385 5.27487C0.119546 5.29733 0.101408 5.3162 0.0890414 5.33956C0.0721471 5.37532 0.0580808 5.41259 0.0469952 5.45096C0.0379908 5.47052 0.0300085 5.49062 0.0230866 5.51116C0.00791947 5.57269 0.000159664 5.63612 2.44491e-06 5.69983V35.3212C-0.000313577 35.4477 0.0300118 35.5721 0.087915 35.6817C0.145818 35.7913 0.229248 35.8824 0.329776 35.9456L16.2001 45.9039C16.2354 45.9233 16.2721 45.9395 16.3098 45.9524C16.3271 45.9596 16.3436 45.9704 16.3617 45.9758C16.4725 46.0081 16.589 46.0081 16.6998 45.9758C16.7162 45.9713 16.7303 45.9614 16.7451 45.956C16.7849 45.9424 16.8235 45.9249 16.8605 45.9039L32.7358 35.9456C32.8364 35.8824 32.9198 35.7913 32.9777 35.6817C33.0356 35.5721 33.0659 35.4477 33.0656 35.3212V25.8643L40.6702 21.0927C40.7713 21.0291 40.8552 20.9373 40.9131 20.8268C40.971 20.7163 41.001 20.5911 41 20.4638V10.5945C41.0004 10.5313 40.9938 10.4682 40.9802 10.4067ZM8.59638 1.55266L15.2075 5.69893L8.59556 9.8479L1.98524 5.69983L8.59638 1.55266ZM15.872 6.94326V25.0305L12.0359 27.4375L9.25841 29.1804V11.0958L13.0945 8.68892L15.872 6.94326ZM15.872 44.0288L1.3224 34.9043V6.94686L4.09992 8.68802L7.93519 11.0958V30.4283C7.93686 30.4555 7.94017 30.4825 7.94508 30.5092C7.94705 30.5448 7.95146 30.5803 7.95827 30.6152C7.96665 30.6431 7.97713 30.6701 7.9896 30.6961C7.99878 30.727 8.01037 30.7571 8.02423 30.7859C8.03947 30.8103 8.05598 30.8337 8.07369 30.856C8.09019 30.8825 8.10837 30.9077 8.12811 30.9315C8.14707 30.9512 8.17098 30.9656 8.19159 30.9836C8.2141 31.0049 8.23777 31.0247 8.26249 31.0429L15.863 35.7309L15.872 44.0288ZM16.5316 34.4902L9.93114 30.4185L16.8638 26.0691L24.4701 21.2976L31.0763 25.442L26.2286 28.4572L16.5316 34.4902ZM31.744 34.9007L17.1936 44.0333V35.7399L27.9706 29.0376L31.744 26.6882V34.9007ZM31.744 24.1977L28.9665 22.461L25.1304 20.0541V11.8406L27.9079 13.5836L31.744 15.9923V24.1977ZM32.4036 14.739L25.7916 10.5909L32.4036 6.44373L39.0139 10.59L32.4036 14.739ZM33.0631 24.1977V15.9923L36.9075 13.5836L39.6842 11.8406V20.0514L33.0631 24.1977Z" fill="white"/>
</svg>
