<svg width="59" height="38" viewBox="0 0 59 38" fill="none" xmlns="http://www.w3.org/2000/svg">
<path d="M29.1589 38C28.9653 38 28.7717 37.9418 28.5966 37.8449L26.8266 36.7397C26.5592 36.5846 26.6883 36.5265 26.7805 36.4974C27.1308 36.3714 27.2045 36.3423 27.5825 36.1096C27.6194 36.0902 27.6747 36.0999 27.7116 36.1193L29.0759 36.9724C29.122 37.0015 29.1958 37.0015 29.2419 36.9724L34.5703 33.7345C34.6164 33.7055 34.6533 33.6473 34.6533 33.5794V27.1134C34.6533 27.0455 34.6256 26.9873 34.5703 26.9583L29.2419 23.7301C29.1958 23.701 29.1313 23.701 29.0759 23.7301L23.7475 26.9583C23.6922 26.9873 23.6645 27.0552 23.6645 27.1134V33.5794C23.6645 33.6376 23.7014 33.6958 23.7475 33.7248L25.2041 34.607C25.9969 35.0239 26.4855 34.5295 26.4855 34.0448V27.6562C26.4855 27.569 26.55 27.4914 26.6422 27.4914H27.3152C27.3981 27.4914 27.4719 27.5593 27.4719 27.6562V34.0448C27.4719 35.1596 26.9003 35.7897 25.8955 35.7897C25.5912 35.7897 25.3423 35.7897 24.6694 35.4407L23.2681 34.5973C22.927 34.384 22.7058 33.9963 22.7058 33.5794V27.1134C22.7058 26.6965 22.9178 26.2991 23.2681 26.0955L28.5966 22.8576C28.9377 22.654 29.3802 22.654 29.712 22.8576L35.0405 26.0955C35.3816 26.3088 35.6028 26.6965 35.6028 27.1134V33.5794C35.6028 33.9963 35.3908 34.3937 35.0405 34.5973L29.712 37.8352C29.5553 37.9418 29.3617 38 29.1589 38ZM33.4641 31.6212C33.4641 30.4094 32.6897 30.0895 31.0487 29.8568C29.3894 29.6242 29.2234 29.5078 29.2234 29.1007C29.2234 28.7614 29.3617 28.3155 30.5878 28.3155C31.6848 28.3155 32.0905 28.5675 32.2564 29.343C32.2748 29.4206 32.3302 29.4691 32.4039 29.4691H33.0953C33.1414 29.4691 33.1783 29.4497 33.2059 29.4206C33.2336 29.3818 33.252 29.343 33.2428 29.2946C33.1322 27.9568 32.2933 27.3363 30.5878 27.3363C29.0667 27.3363 28.1633 28.0149 28.1633 29.1395C28.1633 30.3706 29.0667 30.7002 30.5233 30.8553C32.2656 31.0395 32.4039 31.3013 32.4039 31.66C32.4039 32.2901 31.9245 32.5518 30.7998 32.5518C29.3894 32.5518 29.0759 32.1835 28.9745 31.4467C28.9653 31.3691 28.9008 31.311 28.8178 31.311H28.1264C28.0434 31.311 27.9697 31.3788 27.9697 31.4758C27.9697 32.4161 28.4583 33.5406 30.7906 33.5406C32.4961 33.5406 33.4641 32.8427 33.4641 31.6212ZM38.4883 26.7644C38.4883 27.3557 38.0273 27.8404 37.465 27.8404C36.9027 27.8404 36.4417 27.3557 36.4417 26.7644C36.4417 26.1536 36.9211 25.6883 37.465 25.6883C38.0181 25.6786 38.4883 26.1536 38.4883 26.7644ZM38.3223 26.7644C38.3223 26.2603 37.9352 25.8628 37.4558 25.8628C36.9856 25.8628 36.5984 26.2603 36.5984 26.7644C36.5984 27.2685 36.9856 27.6756 37.4558 27.6756C37.9352 27.6659 38.3223 27.2588 38.3223 26.7644ZM37.9075 27.3654H37.6678C37.6586 27.3073 37.6217 26.997 37.6217 26.9873C37.6033 26.9195 37.5848 26.8807 37.5019 26.8807H37.2991V27.3654H37.0778V26.1536H37.4742C37.6125 26.1536 37.8798 26.1536 37.8798 26.4736C37.8798 26.6965 37.7416 26.745 37.6586 26.7741C37.8153 26.7838 37.8245 26.8904 37.8522 27.0455C37.8614 27.1425 37.8798 27.3073 37.9075 27.3654ZM37.6494 26.5123C37.6494 26.3475 37.5387 26.3475 37.4834 26.3475H37.2991V26.6868H37.4742C37.6217 26.6868 37.6494 26.5802 37.6494 26.5123ZM12.6573 12.698C12.6573 12.4363 12.5283 12.2036 12.3163 12.0776L6.66516 8.65555C6.57297 8.59738 6.46234 8.5683 6.35172 8.5586H6.29641C6.18578 8.5586 6.08438 8.59738 5.98297 8.65555L0.341094 12.0776C0.129063 12.2036 0 12.446 0 12.698L0.00921875 21.9076C0.00921875 22.0336 0.07375 22.1499 0.175156 22.2178C0.276563 22.2856 0.405625 22.2856 0.51625 22.2178L3.87188 20.1917C4.08391 20.056 4.21297 19.8233 4.21297 19.5713V15.267C4.21297 15.015 4.34203 14.7726 4.55406 14.6466L5.98297 13.7838C6.09359 13.7159 6.20422 13.6869 6.32406 13.6869C6.44391 13.6869 6.56375 13.7159 6.66516 13.7838L8.09406 14.6466C8.30609 14.7726 8.43516 15.015 8.43516 15.267V19.5713C8.43516 19.8233 8.56422 20.0657 8.77625 20.1917L12.1319 22.2178C12.2333 22.2856 12.3716 22.2856 12.473 22.2178C12.5744 22.1596 12.6389 22.0336 12.6389 21.9076L12.6573 12.698ZM43.5586 2.64512V19.7458C43.5586 19.9978 43.4295 20.2402 43.2175 20.3662L37.5664 23.7979C37.3544 23.924 37.0963 23.924 36.8842 23.7979L31.2331 20.3662C31.0211 20.2402 30.892 19.9978 30.892 19.7458V12.8822C30.892 12.6302 31.0211 12.3878 31.2331 12.2618L36.8842 8.83004C37.0963 8.70402 37.3544 8.70402 37.5664 8.83004L38.9769 9.68313C39.1336 9.78008 39.3364 9.65405 39.3364 9.46986V0.357279C39.3364 0.0858403 39.613 -0.088656 39.8434 0.0470633L43.2083 2.02469C43.4203 2.14102 43.5586 2.38337 43.5586 2.64512ZM39.318 15.141C39.318 15.0731 39.2811 15.015 39.235 14.9859L37.2991 13.8032C37.2438 13.7741 37.1792 13.7741 37.1239 13.8032L35.188 14.9859C35.1327 15.015 35.105 15.0731 35.105 15.141V17.4967C35.105 17.5645 35.1419 17.6227 35.188 17.6518L37.1239 18.8248C37.1792 18.8539 37.2438 18.8539 37.2898 18.8248L39.2258 17.6518C39.2811 17.6227 39.3088 17.5645 39.3088 17.4967V15.141H39.318ZM58.6589 15.0731C58.8709 14.9471 59 14.7047 59 14.4527V12.795C59 12.5429 58.8709 12.3006 58.6589 12.1746L53.0447 8.74279C52.8327 8.61677 52.5745 8.61677 52.3625 8.74279L46.7114 12.1746C46.4994 12.3006 46.3703 12.5429 46.3703 12.795V19.6585C46.3703 19.9202 46.4994 20.1529 46.7114 20.2789L52.3256 23.6428C52.5284 23.7689 52.7866 23.7689 52.9986 23.6428L56.3911 21.6555C56.6216 21.5198 56.6216 21.1708 56.3911 21.0351L50.7031 17.6033C50.5925 17.5355 50.528 17.4191 50.528 17.2931V15.141C50.528 15.015 50.5925 14.8986 50.7031 14.8308L52.4731 13.7547C52.5745 13.6869 52.7128 13.6869 52.8142 13.7547L54.5842 14.8308C54.6856 14.8986 54.7594 15.015 54.7594 15.141V16.8278C54.7594 17.0992 55.0452 17.2737 55.2756 17.138L58.6589 15.0731ZM51.5328 15.4124C51.4959 15.4415 51.4683 15.4803 51.4683 15.5288V16.8472C51.4683 16.8956 51.4959 16.9441 51.5328 16.9635L52.6206 17.6227C52.6575 17.6518 52.7128 17.6518 52.7497 17.6227L53.8375 16.9635C53.8744 16.9344 53.902 16.8956 53.902 16.8472V15.5288C53.902 15.4803 53.8744 15.4318 53.8375 15.4124L52.7497 14.7532C52.7128 14.7241 52.6575 14.7241 52.6206 14.7532L51.5328 15.4124ZM28.0987 19.6294V12.8047C28.0987 12.5526 27.9513 12.3103 27.7392 12.1842L22.1066 8.77188C21.913 8.65555 21.6456 8.63616 21.4244 8.77188L15.7917 12.1842C15.5797 12.3103 15.4322 12.5429 15.4322 12.8047V19.6294C15.4322 19.9009 15.6073 20.1335 15.8009 20.2499L21.4428 23.6622C21.6641 23.7979 21.9222 23.7882 22.125 23.6622L27.7484 20.2499C27.9144 20.1529 28.0342 19.9881 28.0803 19.7942C28.0895 19.7458 28.0987 19.6876 28.0987 19.6294ZM21.2492 7.52132L21.1755 7.56979H21.2769L21.2492 7.52132ZM28.2739 20.1432L28.237 20.0754V20.1626L28.2739 20.1432Z" fill="black"/>
</svg>
