<svg width="40" height="38" viewBox="0 0 40 38" fill="none" xmlns="http://www.w3.org/2000/svg">
<path d="M32.6719 12.3144C32.25 12.1617 31.8281 12.0175 31.4062 11.8818C31.4766 11.568 31.5391 11.2541 31.6016 10.9403C32.5625 5.88523 31.9297 1.8225 29.7969 0.482396C27.7422 -0.798339 24.3906 0.533286 21 3.73936C20.6641 4.05319 20.3359 4.38397 20.0234 4.71476C19.8125 4.49423 19.5938 4.27371 19.375 4.06167C15.8203 0.635066 12.2578 -0.806821 10.125 0.541768C8.07812 1.83098 7.46875 5.65623 8.32812 10.4399C8.41406 10.9149 8.50781 11.3814 8.61719 11.8563C8.11719 12.009 7.625 12.1786 7.16406 12.3568C2.99219 13.9259 0 16.4025 0 18.964C0 21.6103 3.1875 24.2651 7.52344 25.8766C7.875 26.0038 8.22656 26.131 8.58594 26.2413C8.46875 26.7502 8.36719 27.2506 8.27344 27.768C7.45312 32.4753 8.09375 36.2073 10.1406 37.488C12.25 38.8111 15.7969 37.4541 19.25 34.1717C19.5234 33.9087 19.7969 33.6373 20.0703 33.3489C20.4141 33.7137 20.7734 34.0614 21.1328 34.4007C24.4766 37.5219 27.7812 38.7857 29.8203 37.505C31.9297 36.1818 32.6172 32.17 31.7266 27.2845C31.6562 26.9113 31.5781 26.5297 31.4922 26.1395C31.7422 26.0632 31.9844 25.9784 32.2266 25.8935C36.7344 24.2735 40 21.6527 40 18.964C40 16.394 36.9219 13.9004 32.6719 12.3144ZM22.1016 5.1134C25.0078 2.36533 27.7188 1.28816 28.9531 2.05999C30.2734 2.88271 30.7812 6.20754 29.9531 10.5756C29.8984 10.864 29.8438 11.1439 29.7734 11.4238C28.0391 10.9997 26.2812 10.6944 24.5156 10.5247C23.5 8.94712 22.3906 7.43738 21.1875 6.02094C21.4922 5.70712 21.7891 5.41026 22.1016 5.1134ZM13.0625 23.366C13.4609 24.1039 13.8672 24.8418 14.2969 25.5627C13.0781 25.4186 11.8672 25.2065 10.6719 24.9266C11.0156 23.7053 11.4453 22.4415 11.9453 21.1523C12.3047 21.8987 12.6719 22.6366 13.0625 23.366ZM10.6953 13.1625C11.8203 12.8911 13.0156 12.6706 14.2578 12.5009C13.8438 13.2049 13.4375 13.9259 13.0547 14.6553C12.6719 15.3762 12.2969 16.1141 11.9453 16.8605C11.4531 15.5968 11.0391 14.3584 10.6953 13.1625ZM12.8359 19.0064C13.3516 17.8359 13.9141 16.6909 14.5078 15.5628C15.1016 14.4348 15.7422 13.3406 16.4141 12.2635C17.5859 12.1702 18.7812 12.1193 20 12.1193C21.2188 12.1193 22.4219 12.1702 23.5859 12.2635C24.25 13.3322 24.8828 14.4263 25.4844 15.5459C26.0859 16.6655 26.6484 17.8105 27.1797 18.9725C26.6562 20.143 26.0937 21.2965 25.4922 22.433C24.8984 23.5611 24.2656 24.6552 23.6016 25.7409C22.4375 25.8342 21.2266 25.8766 20 25.8766C18.7734 25.8766 17.5859 25.8342 16.4375 25.7578C15.7578 24.6807 15.1172 23.578 14.5156 22.45C13.9141 21.3219 13.3594 20.1769 12.8359 19.0064ZM26.9453 23.349C27.3438 22.6026 27.7188 21.8478 28.0859 21.0844C28.5859 22.3143 29.0234 23.5611 29.4062 24.8418C28.1953 25.1387 26.9688 25.3677 25.7344 25.5203C26.1562 24.8079 26.5547 24.0785 26.9453 23.349ZM28.0703 16.8605C27.7031 16.1141 27.3281 15.3678 26.9375 14.6383C26.5547 13.9174 26.1562 13.2049 25.7422 12.5009C27 12.6706 28.2031 12.8996 29.3281 13.1795C28.9688 14.4348 28.5469 15.6561 28.0703 16.8605ZM20.0156 7.31864C20.8359 8.28555 21.6094 9.30335 22.3281 10.3551C20.7812 10.2787 19.2266 10.2787 17.6797 10.3551C18.4453 9.26095 19.2344 8.24314 20.0156 7.31864ZM10.9531 2.11936C12.2656 1.28816 15.1797 2.47559 18.25 5.42722C18.4453 5.61382 18.6406 5.81738 18.8438 6.02094C17.6328 7.43738 16.5156 8.94712 15.4922 10.5247C13.7266 10.6944 11.9766 10.9912 10.2422 11.4068C10.1406 10.9742 10.0547 10.5332 9.96875 10.0921C9.23438 5.98701 9.71875 2.8912 10.9531 2.11936ZM9.03906 24.4771C8.71094 24.3753 8.39062 24.2651 8.07031 24.1463C6.40625 23.578 4.51562 22.679 3.14844 21.5C2.35938 20.9063 1.82812 19.9903 1.67969 18.964C1.67969 17.4118 4.14844 15.4271 7.71094 14.0785C8.15625 13.9089 8.60938 13.7562 9.0625 13.6121C9.59375 15.4526 10.2344 17.2592 10.9766 19.0064C10.2266 20.7791 9.57812 22.6111 9.03906 24.4771ZM18.1484 32.7892C16.8594 34.0699 15.3672 35.0877 13.7422 35.7832C12.875 36.2327 11.875 36.2751 10.9844 35.8935C9.74219 35.1131 9.22656 32.1191 9.92969 28.0903C10.0156 27.6153 10.1094 27.1403 10.2188 26.6739C11.9688 27.081 13.7344 27.3609 15.5234 27.5051C16.5547 29.0911 17.6875 30.6094 18.8984 32.0343C18.6484 32.2972 18.3984 32.5517 18.1484 32.7892ZM20.0625 30.7281C19.2656 29.7951 18.4688 28.7603 17.6953 27.6492C18.4453 27.6832 19.2188 27.7001 20 27.7001C20.8047 27.7001 21.5938 27.6832 22.375 27.6408C21.6562 28.7179 20.8828 29.7442 20.0625 30.7281ZM30.2734 33.2726C30.2031 34.3074 29.7344 35.2743 28.9844 35.9274C27.7422 36.7077 25.0938 35.6899 22.2344 33.0266C21.9062 32.7213 21.5781 32.3905 21.2422 32.0512C22.4375 30.6178 23.5391 29.0996 24.5391 27.5051C26.3281 27.3439 28.1094 27.047 29.8672 26.6145C29.9453 26.9622 30.0156 27.31 30.0781 27.6492C30.4609 29.4813 30.5234 31.3897 30.2734 33.2726ZM31.6953 24.1548C31.4766 24.2311 31.2578 24.3075 31.0312 24.3753C30.4844 22.5263 29.8125 20.7197 29.0391 18.964C29.7891 17.2337 30.4219 15.4526 30.9531 13.629C31.3594 13.7562 31.75 13.8919 32.125 14.0277C35.7656 15.3847 38.3203 17.4034 38.3203 18.947C38.3203 20.6094 35.5938 22.7553 31.6953 24.1548ZM20 22.8825C21.9766 22.8825 23.5781 21.1438 23.5781 18.9979C23.5781 16.8521 21.9766 15.1133 20 15.1133C18.0234 15.1133 16.4219 16.8521 16.4219 18.9979C16.4219 21.1438 18.0234 22.8825 20 22.8825Z" fill="black"/>
</svg>
